<?xml version="1.0" standalone="no"?>
<!DOCTYPE svg PUBLIC "-//W3C//DTD SVG 20010904//EN"
 "http://www.w3.org/TR/2001/REC-SVG-20010904/DTD/svg10.dtd">
<svg version="1.0" xmlns="http://www.w3.org/2000/svg"
 width="141.000000pt" height="141.000000pt" viewBox="0 0 141.000000 141.000000"
 preserveAspectRatio="xMidYMid meet">

<g transform="translate(0.000000,141.000000) scale(0.100000,-0.100000)"
fill="#000000" stroke="none">
<path d="M920 780 l0 -310 -45 0 -45 0 -2 243 -3 242 -62 3 -63 3 0 -246 0
-246 -47 3 -48 3 -3 178 -2 178 -63 -3 -62 -3 -3 -177 -2 -178 -45 0 -45 0 0
115 0 115 -65 0 -65 0 0 -114 0 -115 -37 -4 c-21 -2 176 -4 437 -4 261 0 458
2 438 4 l-38 4 0 310 0 309 -65 0 -65 0 0 -310z m118 -7 l2 -303 -50 0 -50 0
0 306 0 305 48 -3 47 -3 3 -302z m-228 -69 l0 -235 -47 3 -48 3 -3 233 -2 232
50 0 50 0 0 -236z m-220 -64 l0 -170 -50 0 -50 0 0 170 0 170 50 0 50 0 0
-170z m-230 -61 l0 -110 -47 3 -48 3 -3 94 c-1 52 -1 100 2 108 3 8 22 13 51
13 l45 0 0 -111z"/>
</g>
</svg>
