<svg width="42" height="34" viewBox="0 0 42 34" fill="none" xmlns="http://www.w3.org/2000/svg">
<path d="M28.8722 18.859H7.23117C7.11726 18.859 7.01496 18.7882 6.97488 18.6814L0.0181796 0.373185C-0.0503749 0.192407 0.0835701 0 0.275523 0L4.87922 0.0169149C4.99313 0.0169149 5.09438 0.087746 5.13446 0.194521L10.2655 13.8184C10.3056 13.9252 10.4079 13.996 10.5218 13.996H30.4522C30.6431 13.996 30.776 14.1863 30.7095 14.366L29.1285 18.6793C29.0885 18.7872 28.9862 18.859 28.8712 18.859H28.8722Z" fill="#FF7A00"/>
<path d="M33.8985 26.1451H9.92556C9.80954 26.1451 9.70618 26.0722 9.66716 25.9622L8.13576 21.6489C8.07248 21.4703 8.20431 21.2821 8.39415 21.2821H30.6353C30.7471 21.2821 30.8473 21.2144 30.8895 21.1108L34.7655 11.5698C34.8393 11.389 34.7064 11.1913 34.5113 11.1913H12.4863C12.3714 11.1913 12.268 11.1194 12.229 11.0116L10.648 6.69829C10.5826 6.51857 10.7145 6.32827 10.9054 6.32827H41.7254C41.9205 6.32827 42.0534 6.52597 41.9795 6.70675L34.1527 25.9739C34.1105 26.0775 34.0103 26.1451 33.8985 26.1451Z" fill="#FF7A00"/>
<path d="M13.3876 33.0747C14.9823 33.0747 16.2751 31.782 16.2751 30.1872C16.2751 28.5925 14.9823 27.2998 13.3876 27.2998C11.7929 27.2998 10.5001 28.5925 10.5001 30.1872C10.5001 31.782 11.7929 33.0747 13.3876 33.0747Z" fill="#FF7A00"/>
<path d="M31.2374 33.0747C32.8321 33.0747 34.1249 31.782 34.1249 30.1872C34.1249 28.5925 32.8321 27.2998 31.2374 27.2998C29.6427 27.2998 28.3499 28.5925 28.3499 30.1872C28.3499 31.782 29.6427 33.0747 31.2374 33.0747Z" fill="#FF7A00"/>
<path d="M17.8498 29.9247C19.2139 31.1133 22.8036 32.7772 26.2497 29.9247" stroke="#FF9900" stroke-width="3" stroke-linecap="round"/>
</svg>
