<svg width="24" height="24" viewBox="0 0 24 24" fill="none" xmlns="http://www.w3.org/2000/svg">
<g clip-path="url(#clip0_8652_465)">
<path d="M4 22C3.73478 22 3.48043 21.8946 3.29289 21.7071C3.10536 21.5196 3 21.2652 3 21V3C3 2.73478 3.10536 2.48043 3.29289 2.29289C3.48043 2.10536 3.73478 2 4 2H18C18.2652 2 18.5196 2.10536 18.7071 2.29289C18.8946 2.48043 19 2.73478 19 3V6H17V4H5V20H17V18H19V21C19 21.2652 18.8946 21.5196 18.7071 21.7071C18.5196 21.8946 18.2652 22 18 22H4ZM17 16V13H10V11H17V8L22 12L17 16Z" fill="#01041D"/>
</g>
<defs>
<clipPath id="clip0_8652_465">
<rect width="24" height="24" fill="white"/>
</clipPath>
</defs>
</svg>
