<svg width="124" height="94" viewBox="0 0 124 94" fill="none" xmlns="http://www.w3.org/2000/svg">
<path d="M106.624 10.6452V16.7225L59.0646 38.8751L11.504 16.7224V10.6452C11.504 9.4671 12.4704 8.50298 13.6742 8.50298H104.454C105.032 8.50298 105.584 8.72962 105.99 9.13171C106.397 9.53509 106.624 10.0791 106.624 10.6452Z" fill="#FF7A00" stroke="black"/>
<path d="M104.474 50.0505L104.456 50.1609V50.0506C97.9493 50.0506 91.7096 52.642 87.1094 57.2541C82.5089 61.8662 79.9249 68.1213 79.9249 74.6433V74.6531L79.9253 74.6628C79.9533 75.3849 80.0159 76.1047 80.1126 76.8204H13.6742C13.0993 76.8204 12.5472 76.5911 12.1402 76.1831L11.7871 76.5353L12.1402 76.1831C11.7332 75.775 11.504 75.2209 11.504 74.6433V23.6059L57.7029 45.4077L57.7028 45.4078L57.7149 45.4131C58.5745 45.7914 59.5538 45.7914 60.4135 45.4131L60.4136 45.4133L60.4257 45.4076L106.624 23.5801V50.2381C105.911 50.1413 105.193 50.0786 104.474 50.0505Z" fill="#FF7A00" stroke="black"/>
<path d="M92.7979 62.7874L92.7979 62.7874C89.425 66.1603 87.5307 70.7352 87.5307 75.5043C87.5307 80.2743 89.4249 84.8491 92.7979 88.222C96.1708 91.5941 100.746 93.4893 105.515 93.4893C110.285 93.4893 114.86 91.5942 118.233 88.2221C118.233 88.2221 118.233 88.222 118.233 88.222M92.7979 62.7874L118.586 62.4337C122.052 65.9004 124 70.6025 124 75.5043C124 80.4069 122.052 85.109 118.586 88.5757L118.233 88.222M92.7979 62.7874C96.1708 59.4144 100.746 57.5202 105.515 57.5202C110.285 57.5202 114.86 59.4145 118.233 62.7874M92.7979 62.7874L118.233 62.7874M118.233 88.222C121.605 84.8491 123.5 80.2742 123.5 75.5043C123.5 70.7352 121.605 66.1603 118.233 62.7874M118.233 88.222L118.233 62.7874M103.286 69.811L103.287 69.8124L103.288 81.1967L103.64 81.5519L103.288 81.1969L103.288 81.1967C102.693 81.7866 102.359 82.589 102.359 83.4263C102.359 84.2637 102.692 85.0656 103.287 85.6555C103.876 86.2486 104.678 86.5825 105.515 86.5825C106.352 86.5825 107.154 86.2484 107.744 85.6549C107.744 85.6546 107.745 85.6543 107.745 85.6541L115.665 77.7345C115.665 77.7342 115.665 77.7339 115.665 77.7336C116.259 77.1438 116.593 76.3418 116.593 75.5042C116.593 74.6674 116.259 73.8654 115.665 73.2757C115.665 73.2754 115.665 73.2752 115.664 73.2749L107.744 65.354C106.513 64.1233 104.517 64.1234 103.287 65.354C102.056 66.5845 102.055 68.5801 103.286 69.811ZM105.859 78.6453H106.569L107.073 78.1452H106.363L105.859 78.6453ZM106.363 72.8641H107.073L106.569 72.3639H105.858L106.363 72.8641Z" fill="black" stroke="black"/>
<path d="M2.99706 11.0039H1.59626V15.6125H2.99706V11.0039Z" fill="#383A48"/>
<path d="M4.60862 12.6148H0V14.0156H4.60862V12.6148Z" fill="#383A48"/>
<path d="M19.0027 0H17.6019V4.60862H19.0027V0Z" fill="#383A48"/>
<path d="M20.6142 1.61092H16.0056V3.01171H20.6142V1.61092Z" fill="#383A48"/>
<path d="M2.99706 0H1.59626V4.60862H2.99706V0Z" fill="#383A48"/>
<path d="M4.60862 1.61092H0V3.01171H4.60862V1.61092Z" fill="#383A48"/>
</svg>
