<?xml version="1.0" standalone="no"?>
<!DOCTYPE svg PUBLIC "-//W3C//DTD SVG 20010904//EN"
 "http://www.w3.org/TR/2001/REC-SVG-20010904/DTD/svg10.dtd">
<svg version="1.0" xmlns="http://www.w3.org/2000/svg"
 width="108.000000pt" height="108.000000pt" viewBox="0 0 108.000000 108.000000"
 preserveAspectRatio="xMidYMid meet">

<g transform="translate(0.000000,108.000000) scale(0.100000,-0.100000)"
fill="#000000" stroke="none">
<path d="M685 960 c-50 -24 -220 -194 -211 -209 4 -6 20 -11 36 -11 16 0 41
-5 56 -10 25 -10 32 -6 99 60 63 61 78 70 109 70 51 0 86 -36 86 -87 0 -34 -9
-46 -118 -155 -129 -129 -147 -138 -207 -98 -57 38 -107 20 -107 -37 0 -56
110 -113 189 -98 63 11 113 48 230 168 122 126 138 156 131 243 -12 141 -166
227 -293 164z"/>
<path d="M405 676 c-67 -31 -276 -244 -295 -300 -44 -134 54 -276 192 -276 74
0 109 20 215 123 98 96 108 117 53 117 -16 0 -41 5 -56 10 -25 10 -32 6 -99
-60 -62 -59 -78 -70 -108 -70 -41 0 -83 30 -89 64 -8 42 16 78 129 189 120
117 140 126 198 87 55 -36 105 -17 105 40 0 21 -9 36 -32 53 -70 52 -137 59
-213 23z"/>
</g>
</svg>
