<svg width="119" height="91" viewBox="0 0 119 91" fill="none" xmlns="http://www.w3.org/2000/svg">
<path d="M82.2335 68.9216L69.1707 60.2158C68.0518 59.4752 66.7511 59.1678 65.4924 59.2795H52.6393C52.5414 59.2795 52.4575 59.2935 52.3736 59.3354C49.6463 56.6944 46.3596 53.131 43.6324 48.9947C38.5695 41.309 36.1359 32.4495 35.6044 30.3254L41.031 26.8878C43.003 25.6441 44.01 23.3524 43.6044 21.0607L40.9051 5.59143C40.4296 2.85253 38.2478 0.75643 35.4926 0.393106L33.9261 0.183496C32.8073 0.0297818 31.7024 -0.0121402 30.5835 0.0297818C30.5276 0.0158078 30.4856 0.0158078 30.4297 0.0158078H17.4787C17.185 0.0158078 16.9192 0.19747 16.8213 0.47695C16.7234 0.75643 16.8074 1.06386 17.0451 1.25949L20.178 3.80276C16.6255 6.49974 14.178 10.3566 13.2549 14.7304C12.7514 17.106 12.7235 19.5095 13.157 21.8851C14.2899 28.0616 17.9542 44.0758 27.6045 59.3075C31.6464 65.6796 36.8212 71.7723 43.003 77.4318C47.017 81.1069 51.2827 84.4607 56.0799 87.7166C58.0798 89.0721 60.3036 90.0223 62.6812 90.5254C63.9539 90.7909 65.2406 90.9307 66.5273 90.9307C69.87 90.9307 73.1567 90.0223 76.0797 88.2756C80.1077 85.8581 83.0447 82.0292 84.3594 77.5156L84.793 75.9925C85.5902 73.2955 84.5412 70.4727 82.2335 68.9216Z" fill="#383A48"/>
<path d="M53.4086 90.204H67.0029L60.9749 80.3803L53.4086 90.204Z" fill="#383A48"/>
<path d="M67.0028 90.9027H53.4085C53.1428 90.9027 52.905 90.749 52.7791 90.5115C52.6673 90.2739 52.6952 89.9944 52.8491 89.7708L60.4155 79.9471C60.5553 79.7654 60.7791 79.6676 61.0029 79.6816C61.2267 79.6956 61.4364 79.8213 61.5623 80.017L67.5903 89.8407C67.7161 90.0503 67.7301 90.3298 67.6042 90.5534C67.4924 90.777 67.2546 90.9027 67.0028 90.9027ZM54.8351 89.5053H65.7581L60.919 81.61L54.8351 89.5053Z" fill="#383A48"/>
<path d="M43.6184 87.1297C45.5345 88.4293 47.6883 89.3516 49.968 89.8267C59.1288 91.7551 68.2336 86.2913 70.821 77.306L71.2546 75.7828C71.9399 73.4212 71.0029 70.878 68.9609 69.5085L55.898 60.8027C54.2057 59.6708 51.996 59.6708 50.3037 60.8027L44.5555 64.6456C44.5555 64.6456 36.1079 58.3433 30.1919 49.358C24.2758 40.3727 21.9542 29.9761 21.9542 29.9761L27.8003 26.2729C29.5206 25.183 30.4157 23.1707 30.066 21.1585L27.3667 5.68924C26.9472 3.25776 25.0031 1.38524 22.5556 1.04987L20.9892 0.840258C11.7165 -0.417403 3.03121 5.68924 1.10115 14.8422C0.625629 17.12 0.583671 19.4536 1.00325 21.7314C2.3459 29.0538 6.13609 44.3553 15.3528 58.9022C24.5696 73.4492 37.4646 82.9375 43.6184 87.1297Z" fill="#AAC6FC"/>
<path d="M53.6744 90.9027C52.3876 90.9027 51.1009 90.7629 49.8282 90.4974C47.4506 89.9944 45.2408 89.0581 43.2269 87.6887C38.4437 84.4467 34.164 81.079 30.15 77.4038C23.9682 71.7583 18.7934 65.6656 14.7515 59.2935C5.10121 44.0618 1.42291 28.0476 0.304032 21.8711C-0.129532 19.4955 -0.101561 17.078 0.401933 14.7164C1.36696 10.119 4.02429 6.09446 7.87042 3.38351C11.7166 0.67255 16.4018 -0.459344 21.0592 0.169486L22.6256 0.379096C25.3808 0.756394 27.5486 2.85249 28.0381 5.57742L30.7374 21.0466C31.143 23.3384 30.122 25.6301 28.164 26.8738L22.7375 30.3114C23.2689 32.4355 25.7025 41.295 30.7654 48.9807C35.8283 56.6664 42.8632 62.4376 44.5695 63.7931L49.8982 60.2297C51.8282 58.9302 54.3317 58.9302 56.2757 60.2297L69.3386 68.9355C71.6463 70.4727 72.6952 73.3094 71.926 75.9784L71.4924 77.5016C70.1917 82.0152 67.2547 85.8441 63.2128 88.2616C60.3037 90.0083 57.017 90.9027 53.6744 90.9027ZM18.5417 1.3992C15.0172 1.3992 11.5907 2.4752 8.66762 4.52937C5.11519 7.03072 2.65367 10.7478 1.75857 15.0099C1.29703 17.2038 1.26906 19.4257 1.67465 21.6336C2.79353 27.7262 6.41588 43.5308 15.9263 58.5529C19.8983 64.8132 25.0032 70.822 31.1011 76.3977C35.0591 80.0169 39.2828 83.3427 44.0101 86.5568C45.8702 87.8144 47.9122 88.6808 50.1079 89.142C54.3597 90.0363 58.7652 89.2957 62.4855 87.0598C66.2197 84.824 68.933 81.2886 70.1358 77.1103L70.5694 75.5872C71.1708 73.5051 70.3596 71.2972 68.5554 70.0954L55.4925 61.3896C54.024 60.4114 52.1359 60.4114 50.6674 61.3896L44.9192 65.2324C44.6674 65.4001 44.3457 65.3862 44.108 65.2185C44.0241 65.1486 35.4926 58.7345 29.5766 49.7632C23.6605 40.7779 21.255 30.2555 21.241 30.1577C21.171 29.8642 21.2969 29.5708 21.5487 29.4171L27.3948 25.714C28.8773 24.7777 29.6465 23.0449 29.3388 21.3121L26.6395 5.84293C26.2619 3.70491 24.5696 2.06995 22.4158 1.7765L20.8494 1.56689C20.0941 1.44112 19.3109 1.3992 18.5417 1.3992Z" fill="#383A48"/>
<path d="M95.39 1.25888H93.989V5.86818H95.39V1.25888Z" fill="#383A48"/>
<path d="M97.0013 2.87005H92.392V4.27105H97.0013V2.87005Z" fill="#383A48"/>
<path d="M107.05 57.9578H105.649V62.5671H107.05V57.9578Z" fill="#383A48"/>
<path d="M108.661 59.5689H104.052V60.9699H108.661V59.5689Z" fill="#383A48"/>
<path d="M99.8835 90.5116C98.2157 90.5116 96.646 89.8547 95.2726 88.6247C93.9131 89.8547 92.3294 90.5116 90.6616 90.5116C88.265 90.5116 86.0366 89.1279 84.3829 86.64C82.7851 84.2359 81.9162 81.0351 81.9162 77.6526C81.9162 77.2613 82.2245 76.9538 82.617 76.9538C83.0094 76.9538 83.3177 77.2613 83.3177 77.6526C83.3177 83.9703 86.6113 89.1139 90.6616 89.1139C91.979 89.1139 93.2264 88.5688 94.3055 87.6184C94.0673 87.3248 93.829 87.0173 93.6048 86.6819C92.0071 84.2778 91.1381 81.105 91.1381 77.7225C91.1381 73.0122 93.2404 70.1888 95.2726 70.1888C96.3798 70.1888 97.4449 70.9995 98.2298 72.4252C99.0006 73.8229 99.421 75.7098 99.421 77.7225C99.421 81.105 98.5381 84.2778 96.9404 86.6819C96.7161 87.0173 96.4779 87.3248 96.2396 87.6184C97.3188 88.5688 98.5521 89.1139 99.8835 89.1139C100.276 89.1139 100.584 89.4214 100.584 89.8128C100.584 90.2041 100.276 90.5116 99.8835 90.5116ZM95.2726 71.5865C94.1233 71.5865 92.5396 73.9207 92.5396 77.7225C92.5396 81.3007 93.6048 84.5014 95.2866 86.598C96.9544 84.5014 98.0335 81.3007 98.0335 77.7225C98.0195 73.9207 96.4218 71.5865 95.2726 71.5865Z" fill="#383A48"/>
<path d="M118.313 90.5116C116.645 90.5116 115.076 89.8547 113.702 88.6247C112.343 89.8547 110.759 90.5116 109.091 90.5116C108.699 90.5116 108.391 90.2041 108.391 89.8127C108.391 89.4214 108.699 89.1139 109.091 89.1139C110.409 89.1139 111.656 88.5688 112.735 87.6183C112.497 87.3248 112.259 87.0173 112.035 86.6819C110.437 84.2918 109.554 81.105 109.554 77.7225C109.554 75.6958 109.974 73.8089 110.745 72.4251C111.53 71.0134 112.609 70.1888 113.702 70.1888C115.734 70.1888 117.837 73.0122 117.837 77.7225C117.837 81.105 116.954 84.2778 115.356 86.6819C115.132 87.0173 114.894 87.3248 114.655 87.6183C115.734 88.5688 116.968 89.1139 118.299 89.1139C118.692 89.1139 119 89.4214 119 89.8127C119 90.2041 118.692 90.5116 118.313 90.5116ZM113.702 71.5865C112.553 71.5865 110.955 73.9207 110.955 77.7225C110.955 81.3006 112.02 84.5014 113.702 86.598C115.37 84.5014 116.449 81.3006 116.449 77.7225C116.449 73.9207 114.852 71.5865 113.702 71.5865Z" fill="#383A48"/>
<path d="M109.091 90.5116C107.424 90.5116 105.854 89.8547 104.48 88.6247C103.121 89.8547 101.537 90.5116 99.8694 90.5116C99.477 90.5116 99.1686 90.2041 99.1686 89.8127C99.1686 89.4214 99.477 89.1139 99.8694 89.1139C101.187 89.1139 102.434 88.5688 103.513 87.6183C103.275 87.3248 103.037 87.0173 102.813 86.6819C101.215 84.2918 100.332 81.105 100.332 77.7225C100.332 73.0122 102.434 70.1888 104.466 70.1888C105.574 70.1888 106.639 70.9995 107.424 72.4251C108.194 73.8229 108.615 75.7098 108.615 77.7225C108.615 81.105 107.732 84.2778 106.134 86.6819C105.91 87.0173 105.672 87.3248 105.433 87.6183C106.513 88.5688 107.746 89.1139 109.077 89.1139C109.47 89.1139 109.778 89.4214 109.778 89.8127C109.778 90.2041 109.484 90.5116 109.091 90.5116ZM104.48 71.5865C103.331 71.5865 101.747 73.9207 101.747 77.7225C101.747 81.3006 102.813 84.5014 104.494 86.598C106.162 84.5014 107.241 81.3006 107.241 77.7225C107.227 73.9207 105.63 71.5865 104.48 71.5865Z" fill="#383A48"/>
<path d="M52.45 16.6904L51.7462 17.9175L56.2647 20.5339L56.9685 19.3068L52.45 16.6904Z" fill="#383A48"/>
<path d="M72.0082 9.21926L70.1618 14.1208L71.4803 14.6222L73.3267 9.72068L72.0082 9.21926Z" fill="#383A48"/>
<path d="M62.1672 10.6896L60.8398 11.166L62.4519 15.7006L63.7793 15.2241L62.1672 10.6896Z" fill="#383A48"/>
<path d="M86.2759 21.6497H73.1562C65.4207 21.6497 59.1461 27.9332 59.1461 35.6795C59.1461 41.4753 62.6521 46.4491 67.6607 48.5807V58.807L76.4118 49.7092H86.2759C94.0114 49.7092 100.286 43.4258 100.286 35.6795C100.272 27.9192 94.0114 21.6497 86.2759 21.6497Z" fill="#F6E049"/>
<path d="M67.6607 59.5036C67.5772 59.5036 67.4798 59.4897 67.3964 59.4479C67.132 59.3364 66.9651 59.0856 66.9651 58.807V49.0405C61.7756 46.6302 58.4505 41.4335 58.4505 35.6795C58.4505 27.557 65.0451 20.9531 73.1562 20.9531H86.2759C94.3871 20.9531 100.982 27.557 100.982 35.6795C100.982 43.802 94.3871 50.4059 86.2759 50.4059H76.7179L68.1616 59.2946C68.0224 59.42 67.8416 59.5036 67.6607 59.5036ZM73.1562 22.3464C65.8103 22.3464 59.8417 28.3233 59.8417 35.6795C59.8417 41.0295 63.0138 45.85 67.939 47.9399C68.1894 48.0513 68.3563 48.3021 68.3563 48.5807V57.0794L75.9109 49.2216C76.0362 49.0823 76.217 49.0126 76.4118 49.0126H86.2759C93.6219 49.0126 99.5904 43.0357 99.5904 35.6795C99.5904 28.3233 93.6219 22.3464 86.2759 22.3464H73.1562Z" fill="#383A48"/>
<path d="M71.0831 37.8947C72.3048 37.8947 73.2952 36.903 73.2952 35.6795C73.2952 34.4561 72.3048 33.4643 71.0831 33.4643C69.8613 33.4643 68.8709 34.4561 68.8709 35.6795C68.8709 36.903 69.8613 37.8947 71.0831 37.8947Z" fill="#383A48"/>
<path d="M79.069 37.8947C80.2908 37.8947 81.2812 36.9029 81.2812 35.6795C81.2812 34.4561 80.2908 33.4643 79.069 33.4643C77.8473 33.4643 76.8569 34.4561 76.8569 35.6795C76.8569 36.9029 77.8473 37.8947 79.069 37.8947Z" fill="#383A48"/>
<path d="M87.055 37.8947C88.2768 37.8947 89.2672 36.9029 89.2672 35.6795C89.2672 34.4561 88.2768 33.4643 87.055 33.4643C85.8333 33.4643 84.8429 34.4561 84.8429 35.6795C84.8429 36.9029 85.8333 37.8947 87.055 37.8947Z" fill="#383A48"/>
</svg>
