<?xml version="1.0" standalone="no"?>
<!DOCTYPE svg PUBLIC "-//W3C//DTD SVG 20010904//EN"
 "http://www.w3.org/TR/2001/REC-SVG-20010904/DTD/svg10.dtd">
<svg version="1.0" xmlns="http://www.w3.org/2000/svg"
 width="78.000000pt" height="84.000000pt" viewBox="0 0 78.000000 84.000000"
 preserveAspectRatio="xMidYMid meet">

<g transform="translate(0.000000,84.000000) scale(0.100000,-0.100000)"
fill="#000000" stroke="none">
<path d="M222 687 c-56 -56 -102 -106 -102 -110 0 -23 37 4 128 96 56 56 102
106 102 110 0 23 -37 -4 -128 -96z"/>
<path d="M430 783 c0 -4 46 -54 102 -110 91 -92 128 -119 128 -96 0 4 -46 54
-102 110 -91 92 -128 119 -128 96z"/>
<path d="M0 515 c0 -13 50 -15 390 -15 340 0 390 2 390 15 0 13 -50 15 -390
15 -340 0 -390 -2 -390 -15z"/>
<path d="M0 365 c0 -52 83 -293 108 -312 23 -18 531 -18 554 0 28 20 118 261
118 312 l0 45 -390 0 -390 0 0 -45z m760 3 c0 -18 -99 -270 -112 -285 -15 -18
-511 -19 -525 0 -13 16 -103 265 -103 283 0 12 56 14 370 14 289 0 370 -3 370
-12z"/>
<path d="M180 220 c0 -50 4 -90 9 -90 12 0 23 75 18 120 -3 19 -5 41 -6 48 0
6 -5 12 -11 12 -6 0 -10 -37 -10 -90z"/>
<path d="M302 225 c2 -48 7 -85 13 -85 6 0 11 37 13 85 2 72 0 85 -13 85 -13
0 -15 -13 -13 -85z"/>
<path d="M452 223 c2 -58 7 -88 16 -91 9 -3 12 19 12 87 0 75 -3 91 -15 91
-13 0 -15 -14 -13 -87z"/>
<path d="M575 258 c-9 -68 -3 -120 13 -126 9 -3 12 19 12 87 0 99 -15 122 -25
39z"/>
</g>
</svg>
