<?xml version="1.0" standalone="no"?>
<!DOCTYPE svg PUBLIC "-//W3C//DTD SVG 20010904//EN"
 "http://www.w3.org/TR/2001/REC-SVG-20010904/DTD/svg10.dtd">
<svg version="1.0" xmlns="http://www.w3.org/2000/svg"
 width="512.000000pt" height="512.000000pt" viewBox="0 0 512.000000 512.000000"
 preserveAspectRatio="xMidYMid meet">

<g transform="translate(0.000000,512.000000) scale(0.100000,-0.100000)"
fill="#000000" stroke="none">
<path d="M815 5093 c-135 -49 -205 -156 -205 -314 l0 -67 -147 -4 c-141 -3
-151 -5 -215 -35 -93 -44 -151 -100 -196 -191 l-37 -76 0 -2046 0 -2046 37
-76 c45 -91 103 -147 196 -191 l67 -32 2246 0 2245 0 76 37 c91 45 147 103
191 196 l32 67 0 2045 0 2045 -32 67 c-44 93 -100 151 -191 196 -76 37 -76 37
-223 41 l-147 3 -4 87 c-5 97 -26 155 -77 214 -82 92 -237 121 -353 64 -108
-53 -159 -139 -166 -279 l-4 -88 -248 0 -248 0 -4 88 c-5 98 -26 156 -77 215
-82 92 -237 121 -353 64 -108 -53 -159 -139 -166 -279 l-4 -88 -248 0 -248 0
-4 88 c-7 142 -63 233 -177 286 -64 29 -178 29 -242 0 -114 -53 -170 -144
-177 -286 l-4 -88 -248 0 -248 0 -4 88 c-5 98 -26 156 -77 215 -71 81 -213
117 -316 80z m144 -198 c48 -24 52 -51 49 -298 l-3 -227 -28 -27 c-38 -38 -96
-38 -134 0 l-28 27 -3 227 c-3 245 1 273 47 298 34 18 65 19 100 0z m1100 0
c48 -24 52 -51 49 -298 l-3 -227 -28 -27 c-38 -38 -96 -38 -134 0 l-28 27 -3
227 c-3 245 1 273 47 298 34 18 65 19 100 0z m1100 0 c48 -24 52 -51 49 -298
l-3 -227 -28 -27 c-38 -38 -96 -38 -134 0 l-28 27 -3 227 c-3 245 1 273 47
298 34 18 65 19 100 0z m1100 0 c48 -24 52 -51 49 -298 l-3 -227 -28 -27 c-38
-38 -96 -38 -134 0 l-28 27 -3 227 c-3 245 1 273 47 298 34 18 65 19 100 0z
m-3647 -477 c3 -70 10 -104 26 -135 33 -63 79 -111 136 -141 44 -23 63 -27
136 -27 73 0 92 4 135 27 108 57 157 139 163 276 l4 92 248 0 248 0 4 -92 c3
-70 10 -104 26 -135 33 -63 79 -111 136 -141 44 -23 63 -27 136 -27 73 0 92 4
135 27 108 57 157 139 163 276 l4 92 248 0 248 0 4 -92 c3 -70 10 -104 26
-135 33 -63 79 -111 136 -141 44 -23 63 -27 136 -27 95 0 145 19 208 79 60 55
85 119 90 224 l4 92 248 0 248 0 4 -92 c3 -70 10 -104 26 -135 33 -63 79 -111
136 -141 44 -23 63 -27 136 -27 95 0 145 19 208 79 60 56 85 119 90 224 l4 94
132 -4 c117 -3 135 -6 169 -27 21 -13 50 -42 65 -64 l27 -40 3 -334 3 -333
-2350 0 -2351 0 0 313 c0 189 4 327 11 350 13 47 77 113 121 126 18 5 85 10
149 10 l117 1 4 -92z m4296 -2491 l-3 -1583 -27 -41 c-15 -22 -44 -51 -65 -64
l-38 -24 -2216 0 -2215 0 -41 27 c-22 15 -51 44 -64 65 l-24 38 -3 1583 -2
1582 2350 0 2350 0 -2 -1583z"/>
<path d="M761 3196 c-48 -27 -50 -42 -51 -334 0 -296 3 -317 55 -340 41 -19
557 -17 594 2 48 25 51 46 51 336 0 290 -3 311 -51 336 -39 20 -562 20 -598 0z
m449 -336 l0 -150 -150 0 -150 0 0 150 0 150 150 0 150 0 0 -150z"/>
<path d="M1761 3196 c-48 -27 -50 -42 -51 -334 0 -296 3 -317 55 -340 41 -19
557 -17 594 2 48 25 51 46 51 336 0 290 -3 311 -51 336 -39 20 -562 20 -598 0z
m449 -336 l0 -150 -150 0 -150 0 0 150 0 150 150 0 150 0 0 -150z"/>
<path d="M2761 3196 c-48 -27 -50 -42 -51 -334 0 -296 3 -317 55 -340 41 -19
557 -17 594 2 48 25 51 46 51 336 0 290 -3 311 -51 336 -39 20 -562 20 -598 0z
m449 -336 l0 -150 -150 0 -150 0 0 150 0 150 150 0 150 0 0 -150z"/>
<path d="M3761 3196 c-48 -27 -50 -42 -51 -334 0 -296 3 -317 55 -340 41 -19
557 -17 594 2 48 25 51 46 51 336 0 290 -3 311 -51 336 -39 20 -562 20 -598 0z
m449 -336 l0 -150 -150 0 -150 0 0 150 0 150 150 0 150 0 0 -150z"/>
<path d="M761 2196 c-48 -27 -50 -42 -51 -334 0 -296 3 -317 55 -340 41 -19
557 -17 594 2 48 25 51 46 51 336 0 290 -3 311 -51 336 -39 20 -562 20 -598 0z
m449 -336 l0 -150 -150 0 -150 0 0 150 0 150 150 0 150 0 0 -150z"/>
<path d="M1761 2196 c-48 -27 -50 -42 -51 -334 0 -296 3 -317 55 -340 41 -19
557 -17 594 2 48 25 51 46 51 336 0 290 -3 311 -51 336 -39 20 -562 20 -598 0z
m449 -336 l0 -150 -150 0 -150 0 0 150 0 150 150 0 150 0 0 -150z"/>
<path d="M2761 2196 c-48 -27 -50 -42 -51 -334 0 -296 3 -317 55 -340 41 -19
557 -17 594 2 48 25 51 46 51 336 0 290 -3 311 -51 336 -39 20 -562 20 -598 0z
m449 -336 l0 -150 -150 0 -150 0 0 150 0 150 150 0 150 0 0 -150z"/>
<path d="M3761 2196 c-48 -27 -50 -42 -51 -334 0 -296 3 -317 55 -340 41 -19
557 -17 594 2 48 25 51 46 51 336 0 290 -3 311 -51 336 -39 20 -562 20 -598 0z
m449 -336 l0 -150 -150 0 -150 0 0 150 0 150 150 0 150 0 0 -150z"/>
<path d="M761 1196 c-48 -27 -50 -42 -51 -334 0 -296 3 -317 55 -340 41 -19
557 -17 594 2 48 25 51 46 51 336 0 290 -3 311 -51 336 -39 20 -562 20 -598 0z
m449 -336 l0 -150 -150 0 -150 0 0 150 0 150 150 0 150 0 0 -150z"/>
<path d="M1761 1196 c-48 -27 -50 -42 -51 -334 0 -296 3 -317 55 -340 41 -19
557 -17 594 2 48 25 51 46 51 336 0 290 -3 311 -51 336 -39 20 -562 20 -598 0z
m449 -336 l0 -150 -150 0 -150 0 0 150 0 150 150 0 150 0 0 -150z"/>
<path d="M2761 1196 c-48 -27 -50 -42 -51 -334 0 -296 3 -317 55 -340 41 -19
557 -17 594 2 48 25 51 46 51 336 0 290 -3 311 -51 336 -39 20 -562 20 -598 0z
m449 -336 l0 -150 -150 0 -150 0 0 150 0 150 150 0 150 0 0 -150z"/>
<path d="M3761 1196 c-48 -27 -50 -42 -51 -334 0 -296 3 -317 55 -340 41 -19
557 -17 594 2 48 25 51 46 51 336 0 290 -3 311 -51 336 -39 20 -562 20 -598 0z
m449 -336 l0 -150 -150 0 -150 0 0 150 0 150 150 0 150 0 0 -150z"/>
</g>
</svg>
